<?xml version="1.0" encoding="UTF-8"?>
<!DOCTYPE svg PUBLIC "-//W3C//DTD SVG 1.1//EN" "http://www.w3.org/Graphics/SVG/1.1/DTD/svg11.dtd">
<svg xmlns="http://www.w3.org/2000/svg" version="1.1" width="512px" height="512px" style="shape-rendering:geometricPrecision; text-rendering:geometricPrecision; image-rendering:optimizeQuality; fill-rule:evenodd; clip-rule:evenodd" xmlns:xlink="http://www.w3.org/1999/xlink">
<g><path style="opacity:0.938" fill="#ffd56d" d="M 240.5,68.5 C 249.173,68.3336 257.84,68.5002 266.5,69C 268.939,69.7739 270.773,71.2739 272,73.5C 272.909,79.6123 272.576,85.6123 271,91.5C 269.786,93.0488 268.286,94.2155 266.5,95C 257.833,95.6667 249.167,95.6667 240.5,95C 238.061,94.2261 236.227,92.7261 235,90.5C 234.333,84.8333 234.333,79.1667 235,73.5C 236.107,70.887 237.94,69.2203 240.5,68.5 Z"/></g>
<g><path style="opacity:0.966" fill="#ffd56e" d="M 238.5,115.5 C 248.506,115.334 258.506,115.5 268.5,116C 270.049,117.214 271.215,118.714 272,120.5C 272.94,129.27 272.607,137.936 271,146.5C 270.097,147.701 268.931,148.535 267.5,149C 257.4,149.949 247.4,149.615 237.5,148C 236.299,147.097 235.465,145.931 235,144.5C 234.333,136.5 234.333,128.5 235,120.5C 235.997,118.677 237.164,117.01 238.5,115.5 Z"/></g>
<g><path style="opacity:0.968" fill="#ff5199" d="M 296.5,125.5 C 306.172,125.334 315.839,125.5 325.5,126C 326.667,127.167 327.833,128.333 329,129.5C 329.667,135.833 329.667,142.167 329,148.5C 327.373,151.399 324.873,152.899 321.5,153C 312.77,153.876 304.104,153.542 295.5,152C 292.05,148.601 290.717,144.434 291.5,139.5C 290.444,133.653 292.111,128.987 296.5,125.5 Z"/></g>
<g><path style="opacity:0.951" fill="#ffad35" d="M 181.5,149.5 C 191.938,149.049 202.271,149.549 212.5,151C 213.893,152.171 214.727,153.671 215,155.5C 215.87,161.917 215.536,168.251 214,174.5C 212.681,176.487 210.848,177.654 208.5,178C 200.167,178.667 191.833,178.667 183.5,178C 180.943,177.315 179.109,175.815 178,173.5C 177.333,166.833 177.333,160.167 178,153.5C 179.376,152.295 180.542,150.962 181.5,149.5 Z"/></g>
<g><path style="opacity:0.98" fill="#6aceba" d="M 124.5,168.5 C 134.172,168.334 143.839,168.5 153.5,169C 154.667,170.167 155.833,171.333 157,172.5C 157.92,179.276 157.586,185.943 156,192.5C 155.25,193.126 154.416,193.626 153.5,194C 148.667,194.167 143.833,194.333 139,194.5C 122.657,198.14 116.324,191.806 120,175.5C 120.545,172.473 122.045,170.14 124.5,168.5 Z"/></g>
<g><path style="opacity:0.974" fill="#ff5298" d="M 295.5,174.5 C 305.506,174.334 315.506,174.5 325.5,175C 326.667,176.167 327.833,177.333 329,178.5C 329.667,224.167 329.667,269.833 329,315.5C 327.661,318.094 325.494,319.594 322.5,320C 313.424,320.913 304.424,320.58 295.5,319C 293.951,317.786 292.785,316.286 292,314.5C 291.333,269.833 291.333,225.167 292,180.5C 292.564,178.113 293.73,176.113 295.5,174.5 Z"/></g>
<g><path style="opacity:0.964" fill="#ffd56d" d="M 240.5,176.5 C 249.173,176.334 257.84,176.5 266.5,177C 268.329,177.273 269.829,178.107 271,179.5C 272.607,188.064 272.94,196.73 272,205.5C 271.215,207.286 270.049,208.786 268.5,210C 258.5,212 248.5,212 238.5,210C 237.667,209.167 236.833,208.333 236,207.5C 234.393,198.936 234.06,190.27 235,181.5C 236.107,178.887 237.94,177.22 240.5,176.5 Z"/></g>
<g><path style="opacity:0.96" fill="#f73c79" d="M 355.5,197.5 C 363.84,197.334 372.173,197.5 380.5,198C 382.848,198.346 384.681,199.513 386,201.5C 388,210.5 388,219.5 386,228.5C 385.167,229.333 384.333,230.167 383.5,231C 374.242,232.584 364.909,232.917 355.5,232C 351.605,231.067 349.438,228.567 349,224.5C 348.144,216.768 348.477,209.102 350,201.5C 351.5,199.531 353.333,198.198 355.5,197.5 Z"/></g>
<g><path style="opacity:0.972" fill="#ffad36" d="M 182.5,206.5 C 191.839,206.334 201.173,206.5 210.5,207C 212.726,208.227 214.226,210.061 215,212.5C 215.667,258.833 215.667,305.167 215,351.5C 213.833,354 212,355.833 209.5,357C 200.5,357.667 191.5,357.667 182.5,357C 180.333,356.167 178.833,354.667 178,352.5C 177.333,305.167 177.333,257.833 178,210.5C 179.397,208.93 180.897,207.596 182.5,206.5 Z"/></g>
<g><path style="opacity:0.978" fill="#6acdba" d="M 124.5,218.5 C 134.172,218.334 143.839,218.5 153.5,219C 155.333,219.5 156.5,220.667 157,222.5C 157.667,253.5 157.667,284.5 157,315.5C 155.661,318.094 153.494,319.594 150.5,320C 141.438,320.881 132.438,320.548 123.5,319C 121.513,317.681 120.346,315.848 120,313.5C 119.333,283.833 119.333,254.167 120,224.5C 120.804,221.854 122.304,219.854 124.5,218.5 Z"/></g>
<g><path style="opacity:0.972" fill="#5852a9" d="M 69.5,222.5 C 78.8393,222.334 88.1726,222.5 97.5,223C 99.8147,224.109 101.315,225.943 102,228.5C 102.667,247.833 102.667,267.167 102,286.5C 101.602,289.232 100.102,291.065 97.5,292C 87.8333,292.667 78.1667,292.667 68.5,292C 67.3333,290.833 66.1667,289.667 65,288.5C 64.3333,268.167 64.3333,247.833 65,227.5C 66.025,225.313 67.525,223.646 69.5,222.5 Z"/></g>
<g><path style="opacity:0.958" fill="#ff8d98" d="M 467.5,237.5 C 477.506,237.334 487.506,237.5 497.5,238C 498.667,239.167 499.833,240.333 501,241.5C 501.94,250.27 501.607,258.936 500,267.5C 498.581,268.46 497.081,269.293 495.5,270C 486.833,270.667 478.167,270.667 469.5,270C 466.667,269.167 464.833,267.333 464,264.5C 463.333,257.167 463.333,249.833 464,242.5C 464.997,240.677 466.164,239.01 467.5,237.5 Z"/></g>
<g><path style="opacity:0.965" fill="#6e6ec1" d="M 12.5,238.5 C 22.5056,238.334 32.5056,238.5 42.5,239C 43.3333,239.833 44.1667,240.667 45,241.5C 46.6232,253.07 46.9566,264.736 46,276.5C 45.1667,279.333 43.3333,281.167 40.5,282C 31.8333,282.667 23.1667,282.667 14.5,282C 12.6711,281.727 11.1711,280.893 10,279.5C 8.37426,267.263 8.04093,254.929 9,242.5C 10.3756,241.295 11.5423,239.962 12.5,238.5 Z"/></g>
<g><path style="opacity:0.976" fill="#ffd56e" d="M 238.5,238.5 C 248.506,238.334 258.506,238.5 268.5,239C 270.049,240.214 271.215,241.714 272,243.5C 272.667,290.833 272.667,338.167 272,385.5C 271.215,387.286 270.049,388.786 268.5,390C 258.5,390.667 248.5,390.667 238.5,390C 236.951,388.786 235.785,387.286 235,385.5C 234.333,338.167 234.333,290.833 235,243.5C 235.997,241.677 237.164,240.01 238.5,238.5 Z"/></g>
<g><path style="opacity:0.97" fill="#ff8d98" d="M 410.5,245.5 C 420.506,245.334 430.506,245.5 440.5,246C 441.333,246.833 442.167,247.667 443,248.5C 444.629,261.739 444.962,275.072 444,288.5C 443.727,290.329 442.893,291.829 441.5,293C 431.6,294.615 421.6,294.949 411.5,294C 410.069,293.535 408.903,292.701 408,291.5C 406.369,277.594 406.036,263.594 407,249.5C 408.376,248.295 409.542,246.962 410.5,245.5 Z"/></g>
<g><path style="opacity:0.992" fill="#f73c7a" d="M 353.5,252.5 C 363.172,252.334 372.839,252.5 382.5,253C 385.108,254.378 386.608,256.545 387,259.5C 387.667,284.167 387.667,308.833 387,333.5C 386.594,336.494 385.094,338.661 382.5,340C 372.833,340.667 363.167,340.667 353.5,340C 351.667,339.5 350.5,338.333 350,336.5C 348.371,311.216 348.038,285.883 349,260.5C 349.451,257.222 350.951,254.556 353.5,252.5 Z"/></g>
<g><path style="opacity:0.958" fill="#ff8d98" d="M 410.5,313.5 C 420.938,313.049 431.271,313.549 441.5,315C 443.933,318.385 444.933,322.218 444.5,326.5C 444.518,329.924 444.018,333.257 443,336.5C 442.097,337.701 440.931,338.535 439.5,339C 429.833,339.667 420.167,339.667 410.5,339C 406.979,335.679 405.646,331.513 406.5,326.5C 405.661,321.336 406.994,317.003 410.5,313.5 Z"/></g>
<g><path style="opacity:0.967" fill="#5852aa" d="M 69.5,319.5 C 79.6051,319.051 89.6051,319.551 99.5,321C 101.933,324.385 102.933,328.218 102.5,332.5C 102.518,335.924 102.018,339.257 101,342.5C 100.097,343.701 98.9308,344.535 97.5,345C 87.8333,345.667 78.1667,345.667 68.5,345C 64.9789,341.679 63.6456,337.513 64.5,332.5C 63.3307,326.832 64.9974,322.498 69.5,319.5 Z"/></g>
<g><path style="opacity:0.965" fill="#ff5299" d="M 296.5,341.5 C 306.172,341.334 315.839,341.5 325.5,342C 326.667,343.167 327.833,344.333 329,345.5C 329.667,353.833 329.667,362.167 329,370.5C 328.535,371.931 327.701,373.097 326.5,374C 316.934,375.613 307.267,375.947 297.5,375C 294.667,374.167 292.833,372.333 292,369.5C 291.333,362.167 291.333,354.833 292,347.5C 292.599,344.746 294.099,342.746 296.5,341.5 Z"/></g>
<g><path style="opacity:0.955" fill="#ffad36" d="M 182.5,381.5 C 192.273,381.052 201.939,381.552 211.5,383C 213.049,384.214 214.215,385.714 215,387.5C 215.851,393.253 215.517,398.92 214,404.5C 212.681,406.487 210.848,407.654 208.5,408C 200.167,408.667 191.833,408.667 183.5,408C 180.943,407.315 179.109,405.815 178,403.5C 177.333,397.833 177.333,392.167 178,386.5C 179.025,384.313 180.525,382.646 182.5,381.5 Z"/></g>
<g><path style="opacity:0.964" fill="#ff5199" d="M 297.5,388.5 C 307.273,388.052 316.939,388.552 326.5,390C 327.701,390.903 328.535,392.069 329,393.5C 329.667,399.167 329.667,404.833 329,410.5C 327.373,413.399 324.873,414.899 321.5,415C 312.77,415.876 304.104,415.542 295.5,414C 293.951,412.786 292.785,411.286 292,409.5C 291.333,404.5 291.333,399.5 292,394.5C 293.021,391.65 294.854,389.65 297.5,388.5 Z"/></g>
<g><path style="opacity:0.969" fill="#ffd56e" d="M 238.5,418.5 C 248.506,418.334 258.506,418.5 268.5,419C 270.049,420.214 271.215,421.714 272,423.5C 272.903,429.281 272.57,434.947 271,440.5C 270.097,441.701 268.931,442.535 267.5,443C 257.4,443.949 247.4,443.615 237.5,442C 235.007,438.826 234.007,435.159 234.5,431C 233.753,426.072 235.087,421.905 238.5,418.5 Z"/></g>
</svg>
